<mxfile host="app.diagrams.net" modified="2024-06-19T15:41:36.544Z" agent="Mozilla/5.0 (Macintosh; Intel Mac OS X 10_15_7) AppleWebKit/605.1.15 (KHTML, like Gecko) Version/17.5 Safari/605.1.15" etag="CCQB6aOS2cxB8fHHln99" version="24.5.5" type="github">
  <diagram name="Page-1" id="y3ndoVi6xfqWE6r7pKKq">
    <mxGraphModel dx="1021" dy="765" grid="0" gridSize="10" guides="1" tooltips="1" connect="1" arrows="1" fold="1" page="0" pageScale="1" pageWidth="827" pageHeight="1169" math="0" shadow="0">
      <root>
        <mxCell id="0" />
        <mxCell id="1" parent="0" />
        <mxCell id="hAeRkLpJTVYSFVQUcOaB-1" value="" style="rounded=0;whiteSpace=wrap;html=1;" vertex="1" parent="1">
          <mxGeometry x="338" y="91" width="461" height="282" as="geometry" />
        </mxCell>
        <mxCell id="hAeRkLpJTVYSFVQUcOaB-11" value="" style="edgeStyle=none;curved=1;rounded=0;orthogonalLoop=1;jettySize=auto;html=1;fontSize=12;startSize=8;endSize=8;" edge="1" parent="1" source="hAeRkLpJTVYSFVQUcOaB-3" target="hAeRkLpJTVYSFVQUcOaB-12">
          <mxGeometry relative="1" as="geometry" />
        </mxCell>
        <mxCell id="hAeRkLpJTVYSFVQUcOaB-3" value="User" style="text;html=1;align=center;verticalAlign=middle;whiteSpace=wrap;rounded=0;fontSize=16;" vertex="1" parent="1">
          <mxGeometry x="209" y="178" width="60" height="33" as="geometry" />
        </mxCell>
        <mxCell id="hAeRkLpJTVYSFVQUcOaB-18" style="edgeStyle=none;curved=1;rounded=0;orthogonalLoop=1;jettySize=auto;html=1;fontSize=12;startSize=8;endSize=8;" edge="1" parent="1" source="hAeRkLpJTVYSFVQUcOaB-7" target="hAeRkLpJTVYSFVQUcOaB-12">
          <mxGeometry relative="1" as="geometry">
            <Array as="points">
              <mxPoint x="589" y="267" />
            </Array>
          </mxGeometry>
        </mxCell>
        <mxCell id="hAeRkLpJTVYSFVQUcOaB-26" value="" style="edgeStyle=none;curved=1;rounded=0;orthogonalLoop=1;jettySize=auto;html=1;fontSize=12;startSize=8;endSize=8;" edge="1" parent="1" source="hAeRkLpJTVYSFVQUcOaB-7" target="hAeRkLpJTVYSFVQUcOaB-8">
          <mxGeometry relative="1" as="geometry" />
        </mxCell>
        <mxCell id="hAeRkLpJTVYSFVQUcOaB-7" value="Database" style="shape=cylinder3;whiteSpace=wrap;html=1;boundedLbl=1;backgroundOutline=1;size=15;" vertex="1" parent="1">
          <mxGeometry x="680" y="137" width="67" height="112" as="geometry" />
        </mxCell>
        <mxCell id="hAeRkLpJTVYSFVQUcOaB-23" style="edgeStyle=none;curved=1;rounded=0;orthogonalLoop=1;jettySize=auto;html=1;entryX=0.5;entryY=1;entryDx=0;entryDy=0;fontSize=12;startSize=8;endSize=8;" edge="1" parent="1" source="hAeRkLpJTVYSFVQUcOaB-8" target="hAeRkLpJTVYSFVQUcOaB-3">
          <mxGeometry relative="1" as="geometry">
            <Array as="points">
              <mxPoint x="393" y="307" />
            </Array>
          </mxGeometry>
        </mxCell>
        <mxCell id="hAeRkLpJTVYSFVQUcOaB-8" value="Connector: email service" style="rounded=1;whiteSpace=wrap;html=1;arcSize=7;" vertex="1" parent="1">
          <mxGeometry x="647.5" y="293" width="132" height="60" as="geometry" />
        </mxCell>
        <mxCell id="hAeRkLpJTVYSFVQUcOaB-13" style="edgeStyle=none;curved=1;rounded=0;orthogonalLoop=1;jettySize=auto;html=1;fontSize=12;startSize=8;endSize=8;" edge="1" parent="1" source="hAeRkLpJTVYSFVQUcOaB-12" target="hAeRkLpJTVYSFVQUcOaB-7">
          <mxGeometry relative="1" as="geometry">
            <Array as="points">
              <mxPoint x="566" y="107" />
            </Array>
          </mxGeometry>
        </mxCell>
        <mxCell id="hAeRkLpJTVYSFVQUcOaB-12" value="Ui" style="shape=card;whiteSpace=wrap;html=1;" vertex="1" parent="1">
          <mxGeometry x="399" y="144.5" width="80" height="100" as="geometry" />
        </mxCell>
      </root>
    </mxGraphModel>
  </diagram>
</mxfile>
